<svg id="visual" viewBox="0 0 900 600" width="900" height="600" xmlns="http://www.w3.org/2000/svg" xmlns:xlink="http://www.w3.org/1999/xlink" version="1.1"><path d="M0 442L7.2 430.2C14.3 418.3 28.7 394.7 43 398.5C57.3 402.3 71.7 433.7 86 424.7C100.3 415.7 114.7 366.3 128.8 367.2C143 368 157 419 171.2 418.7C185.3 418.3 199.7 366.7 214 363.5C228.3 360.3 242.7 405.7 257 428.2C271.3 450.7 285.7 450.3 300 426.5C314.3 402.7 328.7 355.3 343 353.7C357.3 352 371.7 396 386 421.8C400.3 447.7 414.7 455.3 428.8 456.5C443 457.7 457 452.3 471.2 449.5C485.3 446.7 499.7 446.3 514 431.8C528.3 417.3 542.7 388.7 557 379.3C571.3 370 585.7 380 600 390.5C614.3 401 628.7 412 643 417.2C657.3 422.3 671.7 421.7 686 424.7C700.3 427.7 714.7 434.3 728.8 429.5C743 424.7 757 408.3 771.2 392.3C785.3 376.3 799.7 360.7 814 367.8C828.3 375 842.7 405 857 405.8C871.3 406.7 885.7 378.3 892.8 364.2L900 350L900 601L892.8 601C885.7 601 871.3 601 857 601C842.7 601 828.3 601 814 601C799.7 601 785.3 601 771.2 601C757 601 743 601 728.8 601C714.7 601 700.3 601 686 601C671.7 601 657.3 601 643 601C628.7 601 614.3 601 600 601C585.7 601 571.3 601 557 601C542.7 601 528.3 601 514 601C499.7 601 485.3 601 471.2 601C457 601 443 601 428.8 601C414.7 601 400.3 601 386 601C371.7 601 357.3 601 343 601C328.7 601 314.3 601 300 601C285.7 601 271.3 601 257 601C242.7 601 228.3 601 214 601C199.7 601 185.3 601 171.2 601C157 601 143 601 128.8 601C114.7 601 100.3 601 86 601C71.7 601 57.3 601 43 601C28.7 601 14.3 601 7.2 601L0 601Z" fill="#fdefe6"></path><path d="M0 470L7.2 460.8C14.3 451.7 28.7 433.3 43 419C57.3 404.7 71.7 394.3 86 396C100.3 397.7 114.7 411.3 128.8 415.2C143 419 157 413 171.2 402C185.3 391 199.7 375 214 384.7C228.3 394.3 242.7 429.7 257 445.2C271.3 460.7 285.7 456.3 300 447.5C314.3 438.7 328.7 425.3 343 410C357.3 394.7 371.7 377.3 386 379.5C400.3 381.7 414.7 403.3 428.8 422.2C443 441 457 457 471.2 461.2C485.3 465.3 499.7 457.7 514 436C528.3 414.3 542.7 378.7 557 365C571.3 351.3 585.7 359.7 600 368.3C614.3 377 628.7 386 643 401.2C657.3 416.3 671.7 437.7 686 442.2C700.3 446.7 714.7 434.3 728.8 416.3C743 398.3 757 374.7 771.2 377.2C785.3 379.7 799.7 408.3 814 418.8C828.3 429.3 842.7 421.7 857 410.8C871.3 400 885.7 386 892.8 379L900 372L900 601L892.8 601C885.7 601 871.3 601 857 601C842.7 601 828.3 601 814 601C799.7 601 785.3 601 771.2 601C757 601 743 601 728.8 601C714.7 601 700.3 601 686 601C671.7 601 657.3 601 643 601C628.7 601 614.3 601 600 601C585.7 601 571.3 601 557 601C542.7 601 528.3 601 514 601C499.7 601 485.3 601 471.2 601C457 601 443 601 428.8 601C414.7 601 400.3 601 386 601C371.7 601 357.3 601 343 601C328.7 601 314.3 601 300 601C285.7 601 271.3 601 257 601C242.7 601 228.3 601 214 601C199.7 601 185.3 601 171.2 601C157 601 143 601 128.8 601C114.7 601 100.3 601 86 601C71.7 601 57.3 601 43 601C28.7 601 14.3 601 7.2 601L0 601Z" fill="#fae0d1"></path><path d="M0 503L7.2 496.7C14.3 490.3 28.7 477.7 43 462.3C57.3 447 71.7 429 86 417.8C100.3 406.7 114.7 402.3 128.8 397C143 391.7 157 385.3 171.2 395C185.3 404.7 199.7 430.3 214 445.8C228.3 461.3 242.7 466.7 257 453.8C271.3 441 285.7 410 300 394.7C314.3 379.3 328.7 379.7 343 397.2C357.3 414.7 371.7 449.3 386 449.3C400.3 449.3 414.7 414.7 428.8 402.2C443 389.7 457 399.3 471.2 399.7C485.3 400 499.7 391 514 399C528.3 407 542.7 432 557 440.2C571.3 448.3 585.7 439.7 600 439.8C614.3 440 628.7 449 643 452.3C657.3 455.7 671.7 453.3 686 442C700.3 430.7 714.7 410.3 728.8 404.3C743 398.3 757 406.7 771.2 411C785.3 415.3 799.7 415.7 814 423C828.3 430.3 842.7 444.7 857 443C871.3 441.3 885.7 423.7 892.8 414.8L900 406L900 601L892.8 601C885.7 601 871.3 601 857 601C842.7 601 828.3 601 814 601C799.7 601 785.3 601 771.2 601C757 601 743 601 728.8 601C714.7 601 700.3 601 686 601C671.7 601 657.3 601 643 601C628.7 601 614.3 601 600 601C585.7 601 571.3 601 557 601C542.7 601 528.3 601 514 601C499.7 601 485.3 601 471.2 601C457 601 443 601 428.8 601C414.7 601 400.3 601 386 601C371.7 601 357.3 601 343 601C328.7 601 314.3 601 300 601C285.7 601 271.3 601 257 601C242.7 601 228.3 601 214 601C199.7 601 185.3 601 171.2 601C157 601 143 601 128.8 601C114.7 601 100.3 601 86 601C71.7 601 57.3 601 43 601C28.7 601 14.3 601 7.2 601L0 601Z" fill="#f6d0bd"></path><path d="M0 520L7.2 520.8C14.3 521.7 28.7 523.3 43 512.2C57.3 501 71.7 477 86 463.3C100.3 449.7 114.7 446.3 128.8 455C143 463.7 157 484.3 171.2 496.3C185.3 508.3 199.7 511.7 214 506.5C228.3 501.3 242.7 487.7 257 486.5C271.3 485.3 285.7 496.7 300 488.5C314.3 480.3 328.7 452.7 343 444.5C357.3 436.3 371.7 447.7 386 449.2C400.3 450.7 414.7 442.3 428.8 451C443 459.7 457 485.3 471.2 491.2C485.3 497 499.7 483 514 477.8C528.3 472.7 542.7 476.3 557 479.3C571.3 482.3 585.7 484.7 600 474.5C614.3 464.3 628.7 441.7 643 444.5C657.3 447.3 671.7 475.7 686 474C700.3 472.3 714.7 440.7 728.8 442.3C743 444 757 479 771.2 485.2C785.3 491.3 799.7 468.7 814 469.7C828.3 470.7 842.7 495.3 857 495.8C871.3 496.3 885.7 472.7 892.8 460.8L900 449L900 601L892.8 601C885.7 601 871.3 601 857 601C842.7 601 828.3 601 814 601C799.7 601 785.3 601 771.2 601C757 601 743 601 728.8 601C714.7 601 700.3 601 686 601C671.7 601 657.3 601 643 601C628.7 601 614.3 601 600 601C585.7 601 571.3 601 557 601C542.7 601 528.3 601 514 601C499.7 601 485.3 601 471.2 601C457 601 443 601 428.8 601C414.7 601 400.3 601 386 601C371.7 601 357.3 601 343 601C328.7 601 314.3 601 300 601C285.7 601 271.3 601 257 601C242.7 601 228.3 601 214 601C199.7 601 185.3 601 171.2 601C157 601 143 601 128.8 601C114.7 601 100.3 601 86 601C71.7 601 57.3 601 43 601C28.7 601 14.3 601 7.2 601L0 601Z" fill="#f3c0aa"></path><path d="M0 494L7.2 484.8C14.3 475.7 28.7 457.3 43 451.2C57.3 445 71.7 451 86 461.5C100.3 472 114.7 487 128.8 484.8C143 482.7 157 463.3 171.2 467.7C185.3 472 199.7 500 214 503.3C228.3 506.7 242.7 485.3 257 480.8C271.3 476.3 285.7 488.7 300 490.2C314.3 491.7 328.7 482.3 343 480.5C357.3 478.7 371.7 484.3 386 490C400.3 495.7 414.7 501.3 428.8 508C443 514.7 457 522.3 471.2 514.7C485.3 507 499.7 484 514 476.3C528.3 468.7 542.7 476.3 557 475.3C571.3 474.3 585.7 464.7 600 457.7C614.3 450.7 628.7 446.3 643 450.8C657.3 455.3 671.7 468.7 686 478.2C700.3 487.7 714.7 493.3 728.8 494.3C743 495.3 757 491.7 771.2 493.5C785.3 495.3 799.7 502.7 814 495.3C828.3 488 842.7 466 857 456.3C871.3 446.7 885.7 449.3 892.8 450.7L900 452L900 601L892.8 601C885.7 601 871.3 601 857 601C842.7 601 828.3 601 814 601C799.7 601 785.3 601 771.2 601C757 601 743 601 728.8 601C714.7 601 700.3 601 686 601C671.7 601 657.3 601 643 601C628.7 601 614.3 601 600 601C585.7 601 571.3 601 557 601C542.7 601 528.3 601 514 601C499.7 601 485.3 601 471.2 601C457 601 443 601 428.8 601C414.7 601 400.3 601 386 601C371.7 601 357.3 601 343 601C328.7 601 314.3 601 300 601C285.7 601 271.3 601 257 601C242.7 601 228.3 601 214 601C199.7 601 185.3 601 171.2 601C157 601 143 601 128.8 601C114.7 601 100.3 601 86 601C71.7 601 57.3 601 43 601C28.7 601 14.3 601 7.2 601L0 601Z" fill="#efb099"></path><path d="M0 481L7.2 492.2C14.3 503.3 28.7 525.7 43 526.8C57.3 528 71.7 508 86 507.3C100.3 506.7 114.7 525.3 128.8 535C143 544.7 157 545.3 171.2 539.5C185.3 533.7 199.7 521.3 214 522.8C228.3 524.3 242.7 539.7 257 533.3C271.3 527 285.7 499 300 495.8C314.3 492.7 328.7 514.3 343 516.2C357.3 518 371.7 500 386 502C400.3 504 414.7 526 428.8 536.2C443 546.3 457 544.7 471.2 533.5C485.3 522.3 499.7 501.7 514 492.5C528.3 483.3 542.7 485.7 557 487.2C571.3 488.7 585.7 489.3 600 494.5C614.3 499.7 628.7 509.3 643 512.7C657.3 516 671.7 513 686 512C700.3 511 714.7 512 728.8 513.2C743 514.3 757 515.7 771.2 513.8C785.3 512 799.7 507 814 507C828.3 507 842.7 512 857 515.3C871.3 518.7 885.7 520.3 892.8 521.2L900 522L900 601L892.8 601C885.7 601 871.3 601 857 601C842.7 601 828.3 601 814 601C799.7 601 785.3 601 771.2 601C757 601 743 601 728.8 601C714.7 601 700.3 601 686 601C671.7 601 657.3 601 643 601C628.7 601 614.3 601 600 601C585.7 601 571.3 601 557 601C542.7 601 528.3 601 514 601C499.7 601 485.3 601 471.2 601C457 601 443 601 428.8 601C414.7 601 400.3 601 386 601C371.7 601 357.3 601 343 601C328.7 601 314.3 601 300 601C285.7 601 271.3 601 257 601C242.7 601 228.3 601 214 601C199.7 601 185.3 601 171.2 601C157 601 143 601 128.8 601C114.7 601 100.3 601 86 601C71.7 601 57.3 601 43 601C28.7 601 14.3 601 7.2 601L0 601Z" fill="#eb9f89"></path><path d="M0 524L7.2 532.5C14.3 541 28.7 558 43 563.3C57.3 568.7 71.7 562.3 86 558C100.3 553.7 114.7 551.3 128.8 548.5C143 545.7 157 542.3 171.2 543.7C185.3 545 199.7 551 214 551.3C228.3 551.7 242.7 546.3 257 548.7C271.3 551 285.7 561 300 556.5C314.3 552 328.7 533 343 525.3C357.3 517.7 371.7 521.3 386 526.2C400.3 531 414.7 537 428.8 534C443 531 457 519 471.2 516.2C485.3 513.3 499.7 519.7 514 528.2C528.3 536.7 542.7 547.3 557 548.5C571.3 549.7 585.7 541.3 600 538.7C614.3 536 628.7 539 643 546.2C657.3 553.3 671.7 564.7 686 565.8C700.3 567 714.7 558 728.8 551C743 544 757 539 771.2 539C785.3 539 799.7 544 814 542.8C828.3 541.7 842.7 534.3 857 535.3C871.3 536.3 885.7 545.7 892.8 550.3L900 555L900 601L892.8 601C885.7 601 871.3 601 857 601C842.7 601 828.3 601 814 601C799.7 601 785.3 601 771.2 601C757 601 743 601 728.8 601C714.7 601 700.3 601 686 601C671.7 601 657.3 601 643 601C628.7 601 614.3 601 600 601C585.7 601 571.3 601 557 601C542.7 601 528.3 601 514 601C499.7 601 485.3 601 471.2 601C457 601 443 601 428.8 601C414.7 601 400.3 601 386 601C371.7 601 357.3 601 343 601C328.7 601 314.3 601 300 601C285.7 601 271.3 601 257 601C242.7 601 228.3 601 214 601C199.7 601 185.3 601 171.2 601C157 601 143 601 128.8 601C114.7 601 100.3 601 86 601C71.7 601 57.3 601 43 601C28.7 601 14.3 601 7.2 601L0 601Z" fill="#e78e7b"></path><path d="M0 591L7.2 586C14.3 581 28.7 571 43 568.8C57.3 566.7 71.7 572.3 86 573.2C100.3 574 114.7 570 128.8 564.2C143 558.3 157 550.7 171.2 553.2C185.3 555.7 199.7 568.3 214 576.8C228.3 585.3 242.7 589.7 257 586.2C271.3 582.7 285.7 571.3 300 566.3C314.3 561.3 328.7 562.7 343 564.5C357.3 566.3 371.7 568.7 386 566.8C400.3 565 414.7 559 428.8 558.3C443 557.7 457 562.3 471.2 567.8C485.3 573.3 499.7 579.7 514 577.2C528.3 574.7 542.7 563.3 557 555C571.3 546.7 585.7 541.3 600 545.5C614.3 549.7 628.7 563.3 643 568C657.3 572.7 671.7 568.3 686 563C700.3 557.7 714.7 551.3 728.8 549.3C743 547.3 757 549.7 771.2 553.8C785.3 558 799.7 564 814 567.8C828.3 571.7 842.7 573.3 857 568.7C871.3 564 885.7 553 892.8 547.5L900 542L900 601L892.8 601C885.7 601 871.3 601 857 601C842.7 601 828.3 601 814 601C799.7 601 785.3 601 771.2 601C757 601 743 601 728.8 601C714.7 601 700.3 601 686 601C671.7 601 657.3 601 643 601C628.7 601 614.3 601 600 601C585.7 601 571.3 601 557 601C542.7 601 528.3 601 514 601C499.7 601 485.3 601 471.2 601C457 601 443 601 428.8 601C414.7 601 400.3 601 386 601C371.7 601 357.3 601 343 601C328.7 601 314.3 601 300 601C285.7 601 271.3 601 257 601C242.7 601 228.3 601 214 601C199.7 601 185.3 601 171.2 601C157 601 143 601 128.8 601C114.7 601 100.3 601 86 601C71.7 601 57.3 601 43 601C28.7 601 14.3 601 7.2 601L0 601Z" fill="#e27d6e"></path></svg>